<?xml version="1.0" encoding="UTF-8" standalone="no"?>
<!DOCTYPE svg PUBLIC "-//W3C//DTD SVG 1.1//EN" "http://www.w3.org/Graphics/SVG/1.1/DTD/svg11.dtd">
<svg width="100%" height="100%" viewBox="0 0 652 652" version="1.1" xmlns="http://www.w3.org/2000/svg" xmlns:xlink="http://www.w3.org/1999/xlink" xml:space="preserve" xmlns:serif="http://www.serif.com/" style="fill-rule:evenodd;clip-rule:evenodd;stroke-linejoin:round;stroke-miterlimit:2;">
    <g transform="matrix(1,0,0,1,153,46)">
        <rect x="-132" y="192.7" width="600" height="165.3" style="fill:rgb(0,43,111);"/>
    </g>
    <g transform="matrix(1,0,0,1,153,46)">
        <path d="M47,236.2C25.2,236.2 5.1,251.9 1.9,275.5C-1.6,299.1 14.1,314.5 35.9,314.5C57.7,314.5 77.6,299.1 81,275.5C84.2,251.8 68.8,236.2 47,236.2M60.6,275.4C58.7,288.4 49.2,295.8 38.6,295.8C28,295.8 20.6,288.4 22.4,275.4C24.2,262.4 33.8,254.7 44.4,254.7C55,254.7 62.4,262.4 60.6,275.4M326.8,256.1L354.7,256.1L357.4,238.1L329.5,238.1L331.1,225.6L318.9,225.6L311.5,238.1L302.2,244.2L300.6,256.1L306.7,256.1L302.2,287.4C299.3,308.4 307.2,316.9 347.3,312.9L350,294.6C324.8,297.8 321.6,293.3 322.9,283.7L326.8,256.1ZM-27.9,281.4L-61.2,233C-64.1,228.8 -67.8,227.7 -74.7,227.7L-86.1,227.7L-98.6,312.9L-76.8,312.9L-69.2,258.6L-35.2,308.3C-33.1,311.5 -29.9,312.8 -25.1,312.8L-10.8,312.8L1.4,227.3L-20.4,227.3L-27.9,281.4ZM137.3,238C122.2,236.8 117.7,240.3 109.3,250.9L109.1,238L93.5,238L82.9,312.8L103,312.8L108.6,273.7C110.8,260.5 117.9,257.2 134.4,258.4L137.3,238ZM269.7,278.1C267.8,292.2 261.2,297.2 251.9,297.2C241.6,297.2 237,292.2 238.9,278.1L244.5,238L224.3,238L218.5,279.1C214.8,305.9 228.6,314.4 249,314.4C268.9,314.4 285.9,305.9 289.6,279.1L295.4,238L275.2,238L269.7,278.1ZM134.1,276C130.6,301.2 144.5,314.2 163.3,314.2C171.4,314.2 180.2,311.6 186.4,305.4L186.7,312.9L203.7,312.9L213.3,243.9C204.3,239.4 195,237 181.7,237C159,237 137.8,250 134.1,276M186.1,294C183.2,295.3 179.7,296.7 173.1,296.7C159.6,296.7 153.5,289 155.3,275.5C157.2,262.5 166.4,255.3 179.2,255.3C184,255.3 188,256.1 191.1,257.4L186.1,294Z" style="fill:white;fill-rule:nonzero;"/>
    </g>
    <g transform="matrix(1,0,0,1,153,46)">
        <path d="M400.3,236.2C378.5,236.2 358.4,251.9 355.2,275.5C351.7,299.1 367.4,314.5 389.2,314.5C411,314.5 430.9,299.1 434.3,275.5C437.4,251.8 422,236.2 400.3,236.2M413.8,275.4C411.9,288.4 402.4,295.8 391.8,295.8C381.2,295.8 373.8,288.4 375.6,275.4C377.4,262.4 387,254.7 397.6,254.7C408.2,254.7 415.7,262.4 413.8,275.4" style="fill:rgb(252,183,49);fill-rule:nonzero;"/>
    </g>
</svg>
